Format                                   : Matroska
Format version                           : Version 2
File size                                : 1.03 GiB
Duration                                 : 1h 37mn
Overall bit rate                         : 1 516 Kbps
Movie name                               : Blitz [2011].720p.BRRip.x264.[Dual Audio] [Hindi+English].by K@rtik [ExD Exclusive]
Codec ID                                 : V_MPEG4/ISO/AVC
Duration                                 : 1h 37mn
Bit rate                                 : 909 Kbps
Width                                    : 1 280 pixels
Height                                   : 544 pixels
Display aspect ratio                     : 2.35:1
Frame rate                               : 24.000 fps
Stream size                              : 609 MiB (58%)
Title                                    : K@rtik
Codec ID                                 : A_AC3
Duration                                 : 1h 37mn
Bit rate mode                            : Constant
Bit rate                                 : 224 Kbps
Channel(s)                               : 2 channels
Channel positions                        : Front: L R
Sampling rate                            : 48.0 KHz
Stream size                              : 155 MiB (15%)
Title                                    : K@rtik
Language                                 : Hindi
Codec ID                                 : A_AC3
Duration                                 : 1h 37mn
Bit rate mode                            : Constant
Bit rate                                 : 384 Kbps
Channel(s)                               : 6 channels
Channel positions                        : Front: L C R, Side: L R, LFE
Sampling rate                            : 48.0 KHz
Stream size                              : 266 MiB (25%)
Title                                    : K@rtik
Language                                 : English 
http://imageshack.us/a/img706/9756/49833255.png 
http://imageshack.us/a/img171/3478/72397456.png 
http://imageshack.us/a/img23/8961/98842468.png 
http://imageshack.us/a/img14/9994/17646851.png 
http://imageshack.us/a/img15/260/29228824.png 
http://imageshack.us/a/img853/2581/89319021.png 
http://imageshack.us/a/img832/4118/56186205.png 
http://imageshack.us/a/img42/9874/35788150.png 
http://imageshack.us/a/img827/2383/68774268.png 
http://imageshack.us/a/img585/8346/20080550.png 
http://imageshack.us/a/img853/1292/56899747.png

